<svg width="400" height="400" viewBox="0 0 400 400" fill="none" xmlns="http://www.w3.org/2000/svg">
<rect width="400" height="400" fill="#FFC76D"/>
<path d="M233 306V227C233 226.448 232.552 226 232 226H168C167.448 226 167 226.448 167 227V306" stroke="#048CD6" stroke-width="23" stroke-linecap="round" stroke-linejoin="round"/>
<path d="M107 196.633C107 178.613 107 169.603 110.646 161.683C114.293 153.763 121.141 147.899 134.837 136.172L148.123 124.796C172.878 103.599 185.256 93 200 93C214.744 93 227.122 103.599 251.877 124.796L265.163 136.172C278.859 147.899 285.707 153.763 289.354 161.683C293 169.603 293 178.613 293 196.633V252.912C293 277.938 293 290.451 285.217 298.225C277.435 306 264.909 306 239.857 306H160.143C135.091 306 122.565 306 114.783 298.225C107 290.451 107 277.938 107 252.912V196.633Z" stroke="#FD5A47" stroke-width="23"/>
<path d="M301.48 225.28V234.4C309.373 234.72 316.2 235.84 321.96 237.76C327.72 239.573 330.6 242.347 330.6 246.08C330.6 249.387 329.48 253.76 327.24 259.2C325.107 264.64 323.613 267.52 322.76 267.84C313.8 264.107 306.707 262.027 301.48 261.6V279.68C323.88 280.533 335.08 291.307 335.08 312C335.08 321.707 332.307 330.027 326.76 336.96C321.213 343.893 312.787 347.947 301.48 349.12V360.16C301.48 362.08 300.893 363.36 299.72 364C298.653 364.64 297.747 364.96 297 364.96L294.76 364.32C293.267 363.467 292.52 362.08 292.52 360.16V349.6C283.56 349.387 275.613 347.787 268.68 344.8C261.853 341.813 258.44 338.027 258.44 333.44C258.44 327.467 260.253 321.44 263.88 315.36C264.2 314.72 264.627 314.027 265.16 313.28C273.8 318.507 282.92 321.44 292.52 322.08V304.48C269.8 303.093 258.44 291.467 258.44 269.6C258.44 260 261.48 252.107 267.56 245.92C273.64 239.733 281.96 236 292.52 234.72V225.28C292.52 223.36 293.053 222.08 294.12 221.44C295.293 220.8 296.253 220.48 297 220.48L299.24 221.12C300.733 221.973 301.48 223.36 301.48 225.28ZM312.84 311.2C312.84 308.747 311.987 307.093 310.28 306.24C308.68 305.28 305.747 304.693 301.48 304.48V321.76C309.053 320.48 312.84 316.96 312.84 311.2ZM282.76 271.36C282.76 275.84 286.013 278.453 292.52 279.2V261.76C286.013 262.827 282.76 266.027 282.76 271.36Z" fill="#009A5E"/>
</svg>
